<svg width="48" height="48" viewBox="0 0 48 48" fill="none" xmlns="http://www.w3.org/2000/svg">
<rect x="0.5" y="0.5" width="47" height="47" rx="15.5" stroke="white" stroke-opacity="0.295743"/>
<path d="M31 29C31.5523 29 32 29.4477 32 30C32 30.5523 31.5523 31 31 31H17C16.4477 31 16 30.5523 16 30C16 29.4477 16.4477 29 17 29H31ZM31 23C31.5523 23 32 23.4477 32 24C32 24.5523 31.5523 25 31 25H17C16.4477 25 16 24.5523 16 24C16 23.4477 16.4477 23 17 23H31ZM31 17C31.5523 17 32 17.4477 32 18C32 18.5523 31.5523 19 31 19H17C16.4477 19 16 18.5523 16 18C16 17.4477 16.4477 17 17 17H31Z" fill="white"/>
</svg>
