<svg width="48" height="31" viewBox="0 0 48 31" fill="none" xmlns="http://www.w3.org/2000/svg">
<path fill-rule="evenodd" clip-rule="evenodd" d="M8.4375 0C10.0119 0 11.4697 0.461094 12.7324 1.21484C11.8173 2.96459 11.25 4.92337 11.25 7.03125V15.4688C11.25 17.1567 12.2529 18.6054 13.6885 19.2793L12.6494 29.6709C12.578 30.3891 11.9723 30.9375 11.25 30.9375H5.625C4.90266 30.9375 4.29702 30.3891 4.22559 29.6709L2.94531 16.875H1.40625C0.628969 16.875 0 16.246 0 15.4688V8.4375C0 3.78478 3.78478 0 8.4375 0ZM39.5625 0C44.2152 0 48 3.78478 48 8.4375V15.4688C48 16.246 47.371 16.875 46.5938 16.875H45.0547L43.7744 29.6709C43.703 30.3891 43.0973 30.9375 42.375 30.9375H36.75C36.0277 30.9375 35.422 30.3891 35.3506 29.6709L34.3115 19.2793C35.7471 18.6054 36.75 17.1567 36.75 15.4688V7.03125C36.75 4.92337 36.1827 2.96459 35.2676 1.21484C36.5303 0.461094 37.9881 0 39.5625 0Z" fill="#49AFBA"/>
</svg>
